<?xml version="1.0" encoding="utf-8"?>
<!-- Generator: Adobe Illustrator 14.0.0, SVG Export Plug-In . SVG Version: 6.00 Build 43363)  -->
<!DOCTYPE svg PUBLIC "-//W3C//DTD SVG 1.1//EN" "http://www.w3.org/Graphics/SVG/1.1/DTD/svg11.dtd">
<svg version="1.1" xmlns="http://www.w3.org/2000/svg" xmlns:xlink="http://www.w3.org/1999/xlink" x="0px" y="0px" width="642px"
	 height="159.333px" viewBox="0 0 642 159.333" enable-background="new 0 0 642 159.333" xml:space="preserve">
<g id="Ebene_4">
	<rect x="-7.667" y="-6.667" stroke="#FFFFFF" width="661.333" height="176"/>
</g>
<g id="DSP">
	<path display="none" fill="#E2007A" d="M255.387,181.212l-11.415-4.517v4.513h-3.948v-6.012c0-1.444,0.356-2.612,1.069-3.503
		c0.831-1.039,2.053-1.559,3.666-1.559h4.914c0.455,0,0.806-0.155,1.054-0.466c0.248-0.31,0.371-0.677,0.371-1.101
		c0-0.453-0.119-0.832-0.356-1.138c-0.268-0.345-0.624-0.517-1.069-0.517h-9.648v-3.83h10.316c1.543,0,2.766,0.568,3.667,1.705
		c0.811,1.027,1.217,2.287,1.217,3.779c0,1.482-0.406,2.738-1.217,3.766c-0.901,1.146-2.123,1.72-3.667,1.72h-2.494l7.541,2.881
		V181.212z"/>
	<path fill="#FFFFFF" d="M297.012,115.242v26.657h59.943c14.394,0,25.77-6.251,34.139-18.759
		c7.498-11.238,11.25-25.085,11.25-41.538c0-16.854-3.818-31.132-11.453-42.839c-8.43-12.976-19.746-19.464-33.936-19.464h-59.943
		v25.855l27.111,0.053h28.313c6.626,0,11.851,3.541,15.662,10.625c3.416,6.35,5.126,14.206,5.126,23.564
		c0,9.626-1.777,17.847-5.324,24.666c-3.885,7.487-9.036,11.228-15.464,11.228h-28.313"/>
	<path fill="#FFFFFF" d="M528.425,45.207h-84.438c-2.946,0-5.274,1.114-6.984,3.343c-1.704,2.234-2.561,4.849-2.561,7.851
		c0,2.93,0.822,5.428,2.46,7.493c1.646,2.068,4.002,3.101,7.085,3.101h38.454c10.372,0,18.575,3.883,24.601,11.646
		c5.422,6.963,8.132,15.564,8.132,25.809c0,10.173-2.71,18.774-8.132,25.803c-6.025,7.768-14.229,11.647-24.601,11.647h-69.989
		v-26.107h65.57c2.813,0,5.021-1.153,6.626-3.464c1.609-2.306,2.41-4.971,2.41-7.983s-0.767-5.572-2.312-7.679
		c-1.533-2.108-3.779-3.162-6.725-3.162h-38.559c-10.439,0-18.709-3.845-24.8-11.531c-5.488-6.885-8.237-15.409-8.237-25.571
		c0-10.03,2.749-18.516,8.237-25.473c6.157-7.751,14.427-11.629,24.8-11.629h88.962V45.207z M550.383,115.791v26.107h-26.709
		c0-2.008,0-4.784,0-8.332s0-8.204,0-13.958c0-5.76,0-11.884,0-18.377c0-9.771,2.406-17.671,7.229-23.696
		c5.627-7.029,13.892-10.542,24.805-10.542h33.234c3.079,0,5.452-1.049,7.129-3.151c1.671-2.097,2.51-4.579,2.51-7.442
		c0-3.068-0.801-5.632-2.411-7.697c-1.81-2.333-4.215-3.497-7.228-3.497h-65.268V19.298h69.787c10.442,0,18.708,3.845,24.798,11.531
		c5.49,6.957,8.231,15.475,8.231,25.571c0,10.03-2.741,18.516-8.231,25.466c-6.09,7.757-14.355,11.636-24.798,11.636h-25.864
		c-6.692,0-11.481,2.24-14.36,6.725c-1.943,3.079-2.913,6.93-2.913,11.548"/>
</g>
<g id="free">
	<path fill="#FFFFFF" d="M47.599,86.849l0.051,55.097H20.558V81.624c0-11.504,1.137-23.29,3.412-31.384
		c2.742-9.632,7.09-17.024,13.044-22.175c6.756-5.818,15.686-8.767,26.792-8.767l222.999,0v25.854H63.805
		c-6.758,0-12.325,3.439-15,10.703c-0.87,2.399-1.139,3.603-1.206,8.625l31.159,0V86.85L47.599,86.849z"/>
	<g>
		<g>
			<path fill="#FFFFFF" d="M130.042,65.499l-18.766,0c-7.567,0-13.302,2.438-17.2,7.312c-3.344,4.179-5.015,9.659-5.015,16.437
				c0,4.504,0,8.752,0,12.748c0,3.991,0,7.221,0,9.682c0,2.46,0,27.172,0,28.565h18.698l-0.173-40.896l-0.005-2.786
				c0-3.203,0.675-5.875,2.021-8.01c1.996-3.111,5.316-4.665,9.96-4.665c0.001,0,3.665,0,3.665,0l6.823-0.083
				C130.049,83.017,130.042,65.499,130.042,65.499z"/>
		</g>
		<g>
			<path fill="none" stroke="#FFFFFF" stroke-width="4" d="M130.042,65.499l-18.766,0c-7.567,0-13.302,2.438-17.2,7.312
				c-3.344,4.179-5.015,9.659-5.015,16.437c0,4.504,0,8.752,0,12.748c0,3.991,0,7.221,0,9.682c0,2.46,0,27.172,0,28.565h18.698
				l-0.173-40.896l-0.005-2.786c0-3.203,0.675-5.875,2.021-8.01c1.996-3.111,5.316-4.665,9.96-4.665c0.001,0,3.665,0,3.665,0
				l6.823-0.083C130.049,83.017,130.042,65.499,130.042,65.499z"/>
		</g>
	</g>
	<path fill="#FFFFFF" stroke="#FFFFFF" stroke-width="4" d="M284.535,81.564V65.238h-37.479c-9,0-16.114,3.828-21.347,11.488
		c-4.688,6.882-7.035,15.364-7.035,25.44c0,10.323,2.388,19.067,7.162,26.237c5.271,7.947,12.347,11.921,21.22,11.921h37.479V124.49
		l-16.953-0.032h-17.7c-4.143,0-7.41-2.168-9.794-6.507c-2.136-3.89-3.205-8.701-3.205-14.432c0-5.896,1.111-10.931,3.329-15.106
		c2.43-4.586,5.65-6.876,9.67-6.876h17.7L284.535,81.564z"/>
	<rect x="233.527" y="96.019" fill="#FFFFFF" stroke="#FFFFFF" stroke-width="4" width="51.33" height="14.913"/>
	<path fill="#FFFFFF" stroke="#FFFFFF" stroke-width="4" d="M205.016,81.458V65.133H167.54c-9,0-16.113,3.829-21.348,11.488
		c-4.688,6.882-7.034,15.365-7.034,25.44c0,10.323,2.388,19.067,7.161,26.238c5.271,7.947,12.348,11.921,21.221,11.921h37.476
		v-15.836l-16.953-0.032h-17.697c-4.144,0-7.41-2.168-9.794-6.507c-2.136-3.89-3.205-8.701-3.205-14.432
		c0-5.896,1.111-10.931,3.329-15.106c2.43-4.586,5.65-6.876,9.67-6.876h17.697L205.016,81.458z"/>
	<rect x="154.011" y="95.914" fill="#FFFFFF" stroke="#FFFFFF" stroke-width="4" width="51.327" height="14.913"/>
</g>
<g id="Speaker">
	<polygon fill="#FFFFFF" points="327.754,57.686 327.754,102.644 314.805,89.464 297.012,89.464 297.012,71.104 314.805,71.104 	"/>
	<path fill="#FFFFFF" d="M340.134,66.899c1.715,3.276,2.576,7.332,2.576,12.162c0,4.971-0.894,9.214-2.676,12.736
		c-1.076,2.118-2.356,3.6-3.812,4.557c0.612,0.62,1.158,1.293,1.693,1.975c3.101,2.742,6.141,5.556,9.114,8.433
		c1.711-1.385,3.3-3.013,4.667-5.115c3.774-5.801,5.662-12.954,5.662-21.448c0-8.7-1.927-16.073-5.761-22.117
		c-1.528-2.414-3.432-4.229-5.411-5.762c-3.262,3.525-6.626,6.951-10.068,10.303C337.657,63.512,339.085,64.902,340.134,66.899z"/>
</g>
</svg>
