<?xml version="1.0" encoding="utf-8"?>
<!-- Generator: Adobe Illustrator 14.0.0, SVG Export Plug-In  -->
<!DOCTYPE svg PUBLIC "-//W3C//DTD SVG 1.1//EN" "http://www.w3.org/Graphics/SVG/1.1/DTD/svg11.dtd" [
	<!ENTITY ns_flows "http://ns.adobe.com/Flows/1.0/">
]>
<svg version="1.1"
	 xmlns="http://www.w3.org/2000/svg" xmlns:xlink="http://www.w3.org/1999/xlink" xmlns:a="http://ns.adobe.com/AdobeSVGViewerExtensions/3.0/"
	 x="0px" y="0px" width="715px" height="159px" viewBox="-20.558 21.896 715 159" enable-background="new -20.558 21.896 715 159"
	 xml:space="preserve">
<defs>
</defs>
<text transform="matrix(1 0 0 1 603.8013 163.7939)" display="none" fill="#9AC01C" stroke="#9AC01C" font-family="'Nasa'" font-size="205">x</text>
<text transform="matrix(1.1391 0 0 1 611.7769 162.0625)" display="none" fill="#9AC01C" stroke="#9AC01C" stroke-width="4" font-family="'Nasa'" font-size="119.7637">x</text>
<text transform="matrix(1.3373 0 0 1 551.5054 162.2222)" display="none" fill="#9AC01C" stroke="#9AC01C" stroke-width="4" font-family="'Nasa'" font-size="76.1459">x</text>
<text transform="matrix(1.1495 0 0 1 603.1733 113.6636)" display="none" fill="#9AC01C" stroke="#9AC01C" stroke-width="4" font-family="'Nasa'" font-size="115.68">x</text>
<text transform="matrix(1.2452 0 0 1 553.5923 160.6304)" display="none" fill="#9AC01C" stroke="#9AC01C" stroke-width="4" font-family="'Nasa'" font-size="116.4121">x</text>
<path display="none" fill="#9AC01C" d="M684.758,113.143h-18.572l-16.815-25.305c-0.312-0.565-0.819-0.848-1.522-0.848
	s-1.113,0.283-1.23,0.848l-17.167,25.305h-18.396c1.913-2.937,3.827-5.893,5.741-8.868c4.805-7.38,8.32-12.859,10.547-16.437
	c1.718-2.975,3.456-5.95,5.214-8.925l-21.502-34.286h18.396l17.167,25.362c0.117,0.565,0.527,0.847,1.23,0.847
	s1.21-0.282,1.522-0.847l16.815-25.362h18.572l-21.033,34.286L684.758,113.143z"/>
<path fill="#1A161A" d="M688.334,115.143h-23.221l-17.123-25.767l-17.48,25.767h-23.146l2.014-3.092
	c1.911-2.934,3.823-5.886,5.735-8.858c4.78-7.344,8.321-12.862,10.53-16.412c1.489-2.581,3.021-5.206,4.571-7.836l-22.776-36.318
	h23.073l17.479,25.823l17.122-25.823h23.219l-22.26,36.285L688.334,115.143L688.334,115.143z"/>
<path fill="#1A161A" d="M276.455,137.138v26.657h59.943c14.394,0,25.77-6.251,34.139-18.759c7.498-11.238,11.25-25.085,11.25-41.538
	c0-16.854-3.818-31.132-11.453-42.839c-8.43-12.976-19.746-19.464-33.936-19.464h-59.943V67.05l27.111,0.053h28.313
	c6.626,0,11.851,3.541,15.662,10.625c3.416,6.35,5.126,14.206,5.126,23.564c0,9.626-1.777,17.847-5.324,24.666
	c-3.885,7.487-9.036,11.228-15.464,11.228h-28.313"/>
<path fill="#1A161A" d="M507.868,67.103h-84.438c-2.946,0-5.274,1.114-6.984,3.343c-1.704,2.234-2.561,4.849-2.561,7.851
	c0,2.93,0.822,5.428,2.46,7.493c1.646,2.068,4.002,3.101,7.085,3.101h38.454c10.372,0,18.575,3.883,24.601,11.646
	c5.422,6.963,8.132,15.564,8.132,25.809c0,10.173-2.71,18.774-8.132,25.803c-6.025,7.768-14.229,11.647-24.601,11.647h-69.989
	v-26.107h65.57c2.813,0,5.021-1.153,6.626-3.464c1.609-2.306,2.41-4.971,2.41-7.983s-0.767-5.572-2.312-7.679
	c-1.533-2.108-3.779-3.162-6.725-3.162h-38.559c-10.439,0-18.709-3.845-24.8-11.531c-5.488-6.885-8.237-15.409-8.237-25.571
	c0-10.03,2.749-18.516,8.237-25.473c6.157-7.751,14.427-11.629,24.8-11.629h88.962V67.103z M529.826,137.687v26.107h-26.709
	c0-2.008,0-4.784,0-8.332s0-8.204,0-13.958c0-5.76,0-11.884,0-18.377c0-9.771,2.406-17.671,7.229-23.696
	c5.627-7.029,13.892-10.542,24.805-10.542h33.234c3.079,0,5.452-1.049,7.129-3.151c1.671-2.097,2.51-4.579,2.51-7.442
	c0-3.068-0.801-5.632-2.411-7.697c-1.81-2.333-4.215-3.497-7.228-3.497h-65.268V41.194h69.787c10.442,0,18.708,3.845,24.798,11.531
	c5.49,6.957,8.231,15.475,8.231,25.571c0,10.03-2.741,18.516-8.231,25.466c-6.09,7.757-14.355,11.636-24.798,11.636H547.04
	c-6.692,0-11.481,2.24-14.36,6.725c-1.943,3.079-2.913,6.93-2.913,11.548"/>
<g id="F_1_">
	<g>
		<path d="M27.042,108.745l0.051,55.097H0V103.52c0-11.504,1.137-23.29,3.412-31.384c2.742-9.632,7.09-17.024,13.044-22.175
			c6.756-5.818,15.686-8.767,26.792-8.767l222.999,0v25.854H43.248c-6.758,0-12.325,3.439-15,10.703
			c-0.87,2.399-1.139,3.603-1.206,8.625l31.159,0v22.368L27.042,108.745z"/>
	</g>
	<g>
		<path fill="#1A161A" d="M27.042,108.745l0.051,55.097H0V103.52c0-11.504,1.137-23.29,3.412-31.384
			c2.742-9.632,7.09-17.024,13.044-22.175c6.756-5.818,15.686-8.767,26.792-8.767l222.999,0v25.854H43.248
			c-6.758,0-12.325,3.439-15,10.703c-0.87,2.399-1.139,3.603-1.206,8.625l31.159,0v22.368L27.042,108.745z"/>
	</g>
</g>
<g>
	<g>
		<path fill="#1A161A" d="M109.484,87.395l-18.766,0c-7.567,0-13.302,2.438-17.2,7.312c-3.344,4.179-5.015,9.659-5.015,16.437
			c0,4.504,0,8.752,0,12.748c0,3.991,0,7.221,0,9.682c0,2.46,0,27.172,0,28.565h18.698l-0.173-40.896l-0.005-2.786
			c0-3.203,0.675-5.875,2.021-8.01c1.996-3.111,5.316-4.665,9.96-4.665c0.001,0,3.665,0,3.665,0l6.823-0.083
			C109.491,104.913,109.484,87.395,109.484,87.395z"/>
	</g>
</g>
<path fill="#1A161A" d="M89.209,164.139H66.502v-52.995c0-7.213,1.835-13.164,5.454-17.686c4.278-5.35,10.591-8.063,18.762-8.063
	l20.765,0l0.008,22.281l-12.487,0.108c-3.953,0-6.66,1.225-8.276,3.745c-1.129,1.789-1.705,4.125-1.705,6.93l0.005,2.782
	L89.209,164.139L89.209,164.139z M70.502,160.139h14.69l-0.17-41.678c0-3.575,0.784-6.629,2.33-9.08
	c2.386-3.719,6.303-5.598,11.652-5.598h3.665l4.822-0.059l-0.005-14.33l-16.767,0c-6.992,0-12.107,2.146-15.638,6.562
	c-3.037,3.796-4.577,8.905-4.577,15.188V160.139L70.502,160.139z"/>
<path fill="#1A161A" d="M263.977,103.46V87.134h-37.479c-9,0-16.114,3.828-21.347,11.488c-4.688,6.882-7.035,15.364-7.035,25.44
	c0,10.323,2.388,19.067,7.162,26.237c5.271,7.947,12.347,11.921,21.22,11.921h37.479v-15.836l-16.953-0.032h-17.7
	c-4.143,0-7.41-2.168-9.794-6.507c-2.136-3.89-3.205-8.701-3.205-14.432c0-5.896,1.111-10.931,3.329-15.106
	c2.43-4.586,5.65-6.876,9.67-6.876h17.7L263.977,103.46z"/>
<path fill="#1A161A" d="M265.977,164.222h-39.479c-9.546,0-17.247-4.312-22.887-12.816c-4.973-7.468-7.495-16.669-7.495-27.343
	c0-10.438,2.483-19.376,7.382-26.566c5.604-8.204,13.342-12.362,23-12.362h39.479v20.329l-36.653-0.032
	c-3.246,0-5.831,1.901-7.903,5.812c-2.054,3.87-3.096,8.637-3.096,14.17c0,5.363,0.995,9.895,2.958,13.47
	c2.022,3.68,4.652,5.47,8.041,5.47l36.653,0.036V164.222L265.977,164.222z"/>
<rect x="212.97" y="117.915" fill="#1A161A" width="51.33" height="14.913"/>
<path fill="#1A161A" d="M266.299,134.828h-55.33v-18.913h55.33V134.828L266.299,134.828z M214.97,130.828h47.33v-10.913h-47.33
	V130.828L214.97,130.828z"/>
<path fill="#1A161A" d="M184.458,103.354V87.029h-37.476c-9,0-16.113,3.829-21.348,11.488c-4.688,6.882-7.034,15.365-7.034,25.44
	c0,10.323,2.388,19.067,7.161,26.238c5.271,7.947,12.348,11.921,21.221,11.921h37.476V146.28l-16.953-0.032h-17.697
	c-4.144,0-7.41-2.168-9.794-6.507c-2.136-3.89-3.205-8.701-3.205-14.432c0-5.896,1.111-10.931,3.329-15.106
	c2.43-4.586,5.65-6.876,9.67-6.876h17.697L184.458,103.354z"/>
<path fill="#1A161A" d="M186.458,164.116h-39.476c-9.546,0-17.247-4.312-22.887-12.815c-4.973-7.469-7.495-16.67-7.495-27.343
	c0-10.437,2.483-19.375,7.381-26.566c5.606-8.204,13.344-12.362,23-12.362h39.476v20.329l-36.65-0.032
	c-3.246,0-5.831,1.901-7.903,5.812c-2.055,3.87-3.096,8.636-3.096,14.17c0,5.363,0.995,9.895,2.958,13.47
	c2.022,3.68,4.652,5.47,8.041,5.47l36.65,0.036V164.116L186.458,164.116z"/>
<rect x="133.453" y="117.81" fill="#1A161A" width="51.327" height="14.913"/>
<path fill="#1A161A" d="M186.78,134.722h-55.327V115.81h55.327V134.722L186.78,134.722z M135.453,130.722h47.327V119.81h-47.327
	V130.722L135.453,130.722z"/>
<polygon fill="#1A161A" points="307.197,79.582 307.197,124.54 294.248,111.36 276.455,111.36 276.455,93 294.248,93 "/>
<path fill="#1A161A" d="M319.577,88.795c1.715,3.276,2.576,7.332,2.576,12.162c0,4.971-0.894,9.214-2.676,12.736
	c-1.076,2.118-2.356,3.6-3.812,4.557c0.612,0.62,1.158,1.293,1.693,1.975c3.101,2.742,6.141,5.556,9.114,8.433
	c1.711-1.385,3.3-3.013,4.667-5.115c3.774-5.801,5.662-12.954,5.662-21.448c0-8.7-1.927-16.073-5.761-22.117
	c-1.528-2.414-3.432-4.229-5.411-5.762c-3.262,3.525-6.626,6.951-10.068,10.303C317.099,85.408,318.528,86.798,319.577,88.795z"/>
</svg>
